<svg id="Layer_1" data-name="Layer 1" xmlns="http://www.w3.org/2000/svg" viewBox="0 0 87 87"><defs><style>.cls-1{fill:#fff;}</style></defs><title>Artboard 1</title><path class="cls-1" d="M43.5,0A43.47,43.47,0,0,0,14.62,76h0A43.49,43.49,0,1,0,43.5,0ZM17.74,76H69.26a41.37,41.37,0,0,1-51.52,0ZM31.55,23.69a4,4,0,1,1,2.14-5.24A4,4,0,0,1,31.55,23.69Zm.65,1.89-.85,2.79-1-2.39A6,6,0,0,0,32.2,25.58Zm2.18-.3,1,3.1L33.67,33.9l-1.11-2.65Zm2.32,5.53,1,3.1L36,39.43l-1.11-2.65Zm.64,11.06L39,36.34l1.72,4.09Zm11.77-2.78.15-.42a2,2,0,0,1,1.1-1.19h0a2,2,0,1,1-.07,3.64l-.4-.19L32,48.47l-.15.42a2,2,0,1,1-1.9-2.65,2,2,0,0,1,.87.2l.4.19Zm-8.8,8L48,65.39l1.84-.78L42.16,46.35l2.73-1.15L57.09,74H48.36L37.55,48.29ZM71.61,74H59.26L46.73,44.43l3.14-1.32a4,4,0,1,0-2.33-5.53l-5,2.08L35.42,22.56A6,6,0,1,0,28,25.65l7.19,17.1-4,1.69A4,4,0,1,0,33.52,50l2.18-.92L46.19,74H15.39a41.5,41.5,0,1,1,56.21,0Z"/></svg>