<svg id="Layer_1" data-name="Layer 1" xmlns="http://www.w3.org/2000/svg" viewBox="0 0 29 25"><defs><style>.cls-1{fill:#2d2d2d;}</style></defs><title>Artboard 1</title><path class="cls-1" d="M19.5,1.89c-3.14,0-5.62,1.24-6.3,3l.07,4.77L13,9.54a7,7,0,1,0,2,11.27,9.06,9.06,0,0,0,4.51,1.07c3.71,0,6.5-1.72,6.5-4v-12C26,3.61,23.21,1.89,19.5,1.89Zm0,1c3,0,5.5,1.34,5.5,3a2,2,0,0,1-.58,1.34,3.29,3.29,0,0,1-.38.36,4.34,4.34,0,0,1-.45.31,8.06,8.06,0,0,1-4.09,1,8.06,8.06,0,0,1-4.09-1A4.35,4.35,0,0,1,15,7.58a3.29,3.29,0,0,1-.38-.36A2,2,0,0,1,14,5.89C14,4.23,16.46,2.89,19.5,2.89Zm-2.9,10.6a10.35,10.35,0,0,0,2.9.4,8.65,8.65,0,0,0,4.92-1.34,1.83,1.83,0,0,1,0,2.67,3.29,3.29,0,0,1-.38.36,4.34,4.34,0,0,1-.45.31,8.06,8.06,0,0,1-4.09,1A9.34,9.34,0,0,1,17,16.55c0-.22,0-.45,0-.68A7,7,0,0,0,16.6,13.49Zm7.82-2.27a3.29,3.29,0,0,1-.38.36,4.34,4.34,0,0,1-.45.31,8.06,8.06,0,0,1-4.09,1A8.59,8.59,0,0,1,16,12.18,7,7,0,0,0,14,10.13a1.6,1.6,0,0,1,0-.24,2,2,0,0,1,.58-1.34A8.65,8.65,0,0,0,19.5,9.89a8.65,8.65,0,0,0,4.92-1.34A2,2,0,0,1,25,9.89,2,2,0,0,1,24.42,11.22ZM10,21.89a6,6,0,1,1,6-6A6,6,0,0,1,10,21.89Zm9.49-1A8.33,8.33,0,0,1,15.65,20a7,7,0,0,0,1.16-2.48,10.51,10.51,0,0,0,2.68.34,8.65,8.65,0,0,0,4.92-1.34A2,2,0,0,1,25,17.89C25,19.54,22.54,20.89,19.5,20.89Z"/></svg>