<svg id="Layer_1" data-name="Layer 1" xmlns="http://www.w3.org/2000/svg" viewBox="0 0 21 18.75"><defs><style>.cls-1{fill:#4c4c4c;}</style></defs><title>Artboard 1</title><path class="cls-1" d="M14.85,0h-.77a7.2,7.2,0,0,0-3,1.07L11.6,2a6.14,6.14,0,0,1,3.25-1V0ZM6.21,0H5.78l-.32,0,.11,1a5.72,5.72,0,0,1,.64,0A6.82,6.82,0,0,1,9,1.61L9.36.7C9.14.6,8.92.52,8.7.44h0l0,0h-1A7.69,7.69,0,0,0,6.41,0h-.2ZM3.54.59a5.81,5.81,0,0,0-1.39.9h0l0,0h0l0,0H1.27v0h0l0,0h0l0,0h0a6.25,6.25,0,0,0-.44.74l.89.45A4.9,4.9,0,0,1,4,1.5L3.54.59ZM.12,5.23A7.66,7.66,0,0,0,0,6.59H0v0H0a6.08,6.08,0,0,0,.61,2l.9-.43A4.88,4.88,0,0,1,1,6.83,6.75,6.75,0,0,1,1.11,5.4l-1-.17Zm2.37,5-.81.58a22.57,22.57,0,0,0,2.65,3L5,13.11a21.52,21.52,0,0,1-2.53-2.86Zm4,4.17-.65.76.78.66h0l0,0h0c.76.62,1.49,1.18,2.13,1.65h.05l.08.06.59-.81c-1.09-.8-2.13-1.62-3.07-2.43Zm6.72,1.16C11.8,16.67,10.6,17.5,10,17.9l.56.83,1-.67h.08c.63-.45,1.38-1,2.18-1.64l-.62-.78Zm4.26-4a29.92,29.92,0,0,1-2.76,2.71l.66.75a31,31,0,0,0,2.85-2.8l-.75-.66ZM20,7a6.88,6.88,0,0,1-1.38,3.15l.82.58h.08A7.73,7.73,0,0,0,21,7.08L20,7ZM19,1.63l-.68.73a5.35,5.35,0,0,1,1.56,2.93l1-.19-.06-.27h0v0H20.7v0h0v0h0v0h0l0,0h0a6.6,6.6,0,0,0-.3-.74h0v0h0v0H20v0h0v0h0l0,0h0A6,6,0,0,0,19,1.63ZM14.85,0V1a5.14,5.14,0,0,1,1.22.14,5.08,5.08,0,0,1,.88.29l.4-.92L17.18.46h-.1A6.46,6.46,0,0,0,14.85,0Z"/></svg>