<svg id="Layer_1" data-name="Layer 1" xmlns="http://www.w3.org/2000/svg" viewBox="0 0 35 34"><defs><style>.cls-1{fill:#d1d1d1;}</style></defs><title>Artboard 1</title><rect class="cls-1" x="5.66" y="8.05" width="2" height="25.95"/><path class="cls-1" d="M6.66,7A2.32,2.32,0,0,1,4.37,4.71,8.13,8.13,0,0,1,5.83,1.45L6.66.18,7.5,1.45A8.13,8.13,0,0,1,9,4.71,2.32,2.32,0,0,1,6.66,7ZM6.66,4a3,3,0,0,0-.29.74.29.29,0,1,0,.59,0A3.15,3.15,0,0,0,6.66,4Z"/><path class="cls-1" d="M16.32,24.9a18.14,18.14,0,0,1-6.81-1.52l.84-1.82c.05,0,5.34,2.41,9.07.75A15,15,0,0,1,25.15,21L19.9,15.41l5.78-6.49a11.23,11.23,0,0,0-5.45.95c-4.51,2-10.37.12-10.62,0L10.24,8c.05,0,5.38,1.73,9.18,0a12.69,12.69,0,0,1,8.52-.75l1.45.47-6.78,7.61,8,8.56-3.23-.77a12.46,12.46,0,0,0-7.16,1A9.57,9.57,0,0,1,16.32,24.9Z"/></svg>