<svg id="Layer_1" data-name="Layer 1" xmlns="http://www.w3.org/2000/svg" viewBox="0 0 35 34"><defs><style>.cls-1{fill:#d1d1d1;}</style></defs><title>Artboard 1</title><path class="cls-1" d="M34.41,30.26l-10.49-9c2.15-2.12,4-4.55,4.08-6.73a6.26,6.26,0,0,0-4.71-6.68A7,7,0,0,0,17.61,9a7.46,7.46,0,0,0-5.89-1.25,5.89,5.89,0,0,0-2.19,1L1.9,2.23.59,3.74l7.55,6.51A7,7,0,0,0,7,14.48c.2,4.64,8.2,10.36,10.49,11.9a49.87,49.87,0,0,0,4.94-3.79L33.1,31.77ZM12.17,9.74a4.3,4.3,0,0,1,1-.12,5.53,5.53,0,0,1,3.22,1l1.2.9,1.2-.9a5.16,5.16,0,0,1,3-1,4.09,4.09,0,0,1,1,.11A4.27,4.27,0,0,1,26,14.39c-.06,1.49-1.54,3.5-3.6,5.5L11.11,10.17A4,4,0,0,1,12.17,9.74Zm5.33,14.2c-4.2-3-8.39-7-8.5-9.55a5,5,0,0,1,.67-2.82l11.24,9.69C19.83,22.2,18.67,23.11,17.5,23.94Z"/></svg>