<svg id="Layer_1" data-name="Layer 1" xmlns="http://www.w3.org/2000/svg" viewBox="0 0 87 87"><defs><style>.cls-1{fill:#fff;}</style></defs><title>Artboard 1</title><path class="cls-1" d="M43.5,87A43.5,43.5,0,1,1,87,43.5,43.55,43.55,0,0,1,43.5,87Zm0-85A41.5,41.5,0,1,0,85,43.5,41.55,41.55,0,0,0,43.5,2Z"/><path class="cls-1" d="M27,82.39l-5-1.67V26.52h5Zm-3-3.11,1,.33V28.52H24Z"/><path class="cls-1" d="M24.5,25A3.55,3.55,0,0,1,21,21.41c0-1.61,2-4.84,2.66-5.79l.84-1.27.84,1.27C26,16.57,28,19.8,28,21.41A3.55,3.55,0,0,1,24.5,25Zm0-6.93A11.2,11.2,0,0,0,23,21.41a1.5,1.5,0,1,0,3,0A11.2,11.2,0,0,0,24.5,18.07Z"/><path class="cls-1" d="M42.05,59.18a34.37,34.37,0,0,1-13.82-3.28l.89-1.79c.11.06,11.36,5.57,20.15,1.65,6.56-2.93,13.88-3,17.94-2.69L54.65,41.73l13.6-15.27c-3.42-.51-11.36-1.22-18.16,1.82-9.59,4.28-21.25.2-21.74,0L29,26.43c.11,0,11.41,4,20.26,0,9.53-4.26,20.66-1.75,21.13-1.64l1.64.38L57.47,41.58,73.4,55.95,70,55.38c-.11,0-11-1.79-19.93,2.2A19.63,19.63,0,0,1,42.05,59.18Z"/></svg>