<svg id="Layer_1" data-name="Layer 1" xmlns="http://www.w3.org/2000/svg" viewBox="0 0 29 25"><defs><style>.cls-1{fill:#2d2d2d;}</style></defs><title>Artboard 1</title><path class="cls-1" d="M18.24,12.76l5-3.87.22-.17L26.06.4,17.71,3,7,16.82l.62.62L9,18.86l.63.63.7-.54,3.86-3h0L15,15.3h0l2.46-1.92h0l.79-.62Zm-1-.48-.39.31-2.65,2.07-.41.32-.41.32L9.71,18.15,8.29,16.74l2.63-3.36.31-.39.31-.39,2.65-3.4.32-.41.32-.41,3.52-4.51,6.22-2-2,6.22-5,3.87Z"/><polygon class="cls-1" points="9.96 11.36 5.79 8.1 3.82 1.89 10.03 3.86 12.92 7.56 13.55 6.75 10.82 3.25 10.63 3 10.34 2.91 4.12 0.93 2.28 0.35 2.87 2.19 4.84 8.4 4.93 8.7 5.17 8.89 9.34 12.14 9.96 11.36"/><polygon class="cls-1" points="18.87 13.56 18.08 14.18 20.08 16.74 18.67 18.15 15.83 15.94 15.01 16.57 18.05 18.94 18.75 19.48 19.37 18.86 20.79 17.44 21.41 16.82 20.87 16.12 18.87 13.56"/><path class="cls-1" d="M23.13,17.93l1.41-1.41-.71-.71h0l-1.41,1.41L19.6,20.05l-1.41,1.41.71.71,1.41-1.41L24.55,25l2.83-2.83Zm-.71.71L26,22.17l-1.41,1.41L21,20.05Z"/><path class="cls-1" d="M5.95,17.22,4.54,15.81l-.71.71,1.41,1.41L1,22.17,3.83,25l4.24-4.24,1.41,1.41.71-.71L8.78,20.05ZM2.41,22.17l3.54-3.54,1.41,1.41L3.83,23.59Z"/></svg>