<svg id="Layer_1" data-name="Layer 1" xmlns="http://www.w3.org/2000/svg" viewBox="0 0 29 25"><defs><style>.cls-1{fill:#fff}</style></defs><title>Artboard 1</title><path class="cls-1" d="M19.5 1.89c-3.14 0-5.62 1.24-6.3 3l.07 4.77-.27-.12a7 7 0 1 0 2 11.27 9.06 9.06 0 0 0 4.51 1.07c3.71 0 6.5-1.72 6.5-4v-12c-.01-2.27-2.8-3.99-6.51-3.99zm0 1c3 0 5.5 1.34 5.5 3a2 2 0 0 1-.58 1.34 3.29 3.29 0 0 1-.38.36 4.34 4.34 0 0 1-.45.31 8.06 8.06 0 0 1-4.09 1 8.06 8.06 0 0 1-4.09-1 4.35 4.35 0 0 1-.41-.32 3.29 3.29 0 0 1-.38-.36A2 2 0 0 1 14 5.89c0-1.66 2.46-3 5.5-3zm-2.9 10.6a10.35 10.35 0 0 0 2.9.4 8.65 8.65 0 0 0 4.92-1.34 1.83 1.83 0 0 1 0 2.67 3.29 3.29 0 0 1-.38.36 4.34 4.34 0 0 1-.45.31 8.06 8.06 0 0 1-4.09 1 9.34 9.34 0 0 1-2.5-.34v-.68a7 7 0 0 0-.4-2.38zm7.82-2.27a3.29 3.29 0 0 1-.38.36 4.34 4.34 0 0 1-.45.31 8.06 8.06 0 0 1-4.09 1 8.59 8.59 0 0 1-3.5-.71 7 7 0 0 0-2-2.05 1.6 1.6 0 0 1 0-.24 2 2 0 0 1 .58-1.34 8.65 8.65 0 0 0 4.92 1.34 8.65 8.65 0 0 0 4.92-1.34A2 2 0 0 1 25 9.89a2 2 0 0 1-.58 1.33zM10 21.89a6 6 0 1 1 6-6 6 6 0 0 1-6 6zm9.49-1a8.33 8.33 0 0 1-3.84-.89 7 7 0 0 0 1.16-2.48 10.51 10.51 0 0 0 2.68.34 8.65 8.65 0 0 0 4.92-1.34 2 2 0 0 1 .59 1.37c0 1.65-2.46 3-5.5 3z"/></svg>