<svg id="Layer_1" data-name="Layer 1" xmlns="http://www.w3.org/2000/svg" viewBox="0 0 21 18.75"><defs><style>.cls-1{fill:#c22a11}</style></defs><title>Artboard 1</title><path class="cls-1" d="M16.28.17a7 7 0 0 0-5.67 1.25A7.46 7.46 0 0 0 4.72.17 6.26 6.26 0 0 0 0 6.85c.2 4.64 8.2 10.36 10.49 11.9 2.3-1.53 10.31-7.26 10.51-11.9A6.26 6.26 0 0 0 16.28.17zM10.5 16.32c-4.2-3-8.39-7-8.5-9.55a4.26 4.26 0 0 1 3.17-4.65A4.3 4.3 0 0 1 6.2 2a5.53 5.53 0 0 1 3.21 1l1.2.9 1.2-.9a5.16 5.16 0 0 1 3-1 4.09 4.09 0 0 1 1 .11A4.27 4.27 0 0 1 19 6.77c-.11 2.53-4.3 6.56-8.5 9.55z"/></svg>