<svg id="Layer_1" data-name="Layer 1" xmlns="http://www.w3.org/2000/svg" viewBox="0 0 21 18.75"><defs><style>.cls-1{fill:#4c4c4c}</style></defs><title>Artboard 1</title><path class="cls-1" d="M14.85 0h-.77a7.2 7.2 0 0 0-3 1.07l.52.93a6.14 6.14 0 0 1 3.25-1V0zM6.21 0h-.75l.11 1a5.72 5.72 0 0 1 .64 0A6.82 6.82 0 0 1 9 1.61L9.36.7C9.14.6 8.92.52 8.7.44h-1A7.69 7.69 0 0 0 6.41 0h-.2zM3.54.59a5.81 5.81 0 0 0-1.39.9h-.88a6.25 6.25 0 0 0-.44.74l.89.45A4.9 4.9 0 0 1 4 1.5L3.54.59zM.12 5.23A7.66 7.66 0 0 0 0 6.59a6.08 6.08 0 0 0 .61 2l.9-.43A4.88 4.88 0 0 1 1 6.83a6.75 6.75 0 0 1 .11-1.43l-1-.17zm2.37 5l-.81.58a22.57 22.57 0 0 0 2.65 3l.67-.7a21.52 21.52 0 0 1-2.53-2.86zm4 4.17l-.65.76.78.66c.76.62 1.49 1.18 2.13 1.65h.05l.08.06.59-.81c-1.09-.8-2.13-1.62-3.07-2.43zm6.72 1.16A52.24 52.24 0 0 1 10 17.9l.56.83 1-.67h.08c.63-.45 1.38-1 2.18-1.64l-.62-.78zm4.26-4a29.92 29.92 0 0 1-2.76 2.71l.66.75a31 31 0 0 0 2.85-2.8l-.75-.66zM20 7a6.88 6.88 0 0 1-1.38 3.15l.82.58h.08A7.73 7.73 0 0 0 21 7.08L20 7zm-1-5.37l-.68.73a5.35 5.35 0 0 1 1.56 2.93l1-.19-.06-.27h-.12a6.6 6.6 0 0 0-.3-.74H20a6 6 0 0 0-1-2.46zM14.85 0v1a5.14 5.14 0 0 1 1.22.14 5.08 5.08 0 0 1 .88.29l.4-.92-.17-.05h-.1A6.46 6.46 0 0 0 14.85 0z"/></svg>