<svg id="Layer_1" data-name="Layer 1" xmlns="http://www.w3.org/2000/svg" viewBox="0 0 35 34"><defs><style>.cls-1{fill:#d1d1d1}</style></defs><title>Artboard 1</title><path class="cls-1" d="M5.66 8.05h2V34h-2zm1-1.05a2.32 2.32 0 0 1-2.29-2.29 8.13 8.13 0 0 1 1.46-3.26L6.66.18l.84 1.27A8.13 8.13 0 0 1 9 4.71 2.32 2.32 0 0 1 6.66 7zm0-3a3 3 0 0 0-.29.74.29.29 0 1 0 .59 0 3.15 3.15 0 0 0-.3-.74zm9.66 20.9a18.14 18.14 0 0 1-6.81-1.52l.84-1.82c.05 0 5.34 2.41 9.07.75A15 15 0 0 1 25.15 21l-5.25-5.59 5.78-6.49a11.23 11.23 0 0 0-5.45.95c-4.51 2-10.37.12-10.62 0L10.24 8c.05 0 5.38 1.73 9.18 0a12.69 12.69 0 0 1 8.52-.75l1.45.47-6.78 7.61 8 8.56-3.23-.77a12.46 12.46 0 0 0-7.16 1 9.57 9.57 0 0 1-3.9.78z"/></svg>