<svg id="Layer_1" data-name="Layer 1" xmlns="http://www.w3.org/2000/svg" viewBox="0 0 35 34"><defs><style>.cls-1{fill:#d1d1d1}</style></defs><title>Artboard 1</title><path class="cls-1" d="M18.55 30h-2.1A2.45 2.45 0 0 1 14 27.78c0-.28-.07-.6-.09-.94-.27-.1-.55-.22-.84-.35l-.45.38-.24.21a2.46 2.46 0 0 1-3.32-.16l-1.47-1.48a2.46 2.46 0 0 1-.16-3.31l.6-.7c-.14-.29-.26-.57-.36-.86h-.14l-.83-.08A2.43 2.43 0 0 1 4.5 18v-2a2.45 2.45 0 0 1 2.22-2.44l.94-.09c.1-.27.22-.55.35-.84l-.38-.45-.2-.24a2.46 2.46 0 0 1 .16-3.32l1.47-1.53a2.46 2.46 0 0 1 3.32-.16l.26.22.45.38c.29-.14.57-.25.85-.36V7c0-.29 0-.57.08-.83A2.43 2.43 0 0 1 16.45 4h2.1A2.45 2.45 0 0 1 21 6.22c0 .28.07.6.09.94.27.1.55.22.84.35l.45-.38.25-.21a2.47 2.47 0 0 1 3.32.16l1.45 1.48a2.46 2.46 0 0 1 .16 3.31l-.6.7c.14.29.26.57.36.86h.13l.81.07a2.5 2.5 0 0 1 2.25 2.41V18a2.45 2.45 0 0 1-2.22 2.44l-.94.09c-.1.27-.22.55-.35.84l.38.45.21.25a2.46 2.46 0 0 1-.16 3.32l-1.47 1.47a2.46 2.46 0 0 1-3.32.16l-.25-.21-.45-.38c-.28.14-.56.25-.85.36V27c0 .29 0 .57-.07.82A2.43 2.43 0 0 1 18.55 30zM13 24.33a1.23 1.23 0 0 1 .55.13 8.94 8.94 0 0 0 1.45.64 1.22 1.22 0 0 1 .86 1.16c0 .45.07.9.12 1.3a.47.47 0 0 0 .45.44h2.1a.44.44 0 0 0 .45-.39c0-.28.05-.53.07-.8s0-.43.05-.65a1.17 1.17 0 0 1 .59-.94l.31-.12a7.77 7.77 0 0 0 1.48-.62 1.2 1.2 0 0 1 1.28.07l.13.1c.27.25.53.47.78.68l.26.21a.46.46 0 0 0 .62 0L26 24a.46.46 0 0 0 0-.64l-.2-.23c-.21-.25-.43-.51-.67-.78l-.1-.12A1.22 1.22 0 0 1 25 21a8.88 8.88 0 0 0 .64-1.52 1.22 1.22 0 0 1 1.16-.86c.45 0 .9-.07 1.31-.12a.46.46 0 0 0 .39-.5v-2a.48.48 0 0 0-.41-.45H28l-.75-.07-.65-.05a1.16 1.16 0 0 1-.93-.59l-.13-.27A7.84 7.84 0 0 0 25 13a1.19 1.19 0 0 1 0-1.24l.08-.11.92-1.06a.46.46 0 0 0 0-.59l-1.48-1.51a.46.46 0 0 0-.64 0l-.23.2c-.25.21-.51.43-.78.67l-.13.1a1.22 1.22 0 0 1-1.25.09A8.86 8.86 0 0 0 20 8.9a1.22 1.22 0 0 1-.86-1.16c0-.45-.07-.9-.12-1.3a.47.47 0 0 0-.47-.44h-2.1a.44.44 0 0 0-.45.39c0 .29-.05.54-.07.8s0 .42-.05.65a1.16 1.16 0 0 1-.58.93l-.3.13a7.72 7.72 0 0 0-1.48.62 1.19 1.19 0 0 1-1.28-.07l-.13-.1c-.27-.25-.53-.47-.78-.67l-.26-.22a.46.46 0 0 0-.62 0L9 10a.46.46 0 0 0 0 .64l.19.23c.21.25.43.52.68.78l.1.13A1.22 1.22 0 0 1 10 13a9 9 0 0 0-.64 1.52 1.22 1.22 0 0 1-1.16.86c-.45 0-.9.07-1.31.12a.46.46 0 0 0-.39.5v2a.44.44 0 0 0 .39.45l.8.07.65.06a1.14 1.14 0 0 1 .93.59l.13.27A7.84 7.84 0 0 0 10 21a1.19 1.19 0 0 1-.07 1.29l-.08.1L9 23.41A.46.46 0 0 0 9 24l1.47 1.47a.46.46 0 0 0 .64 0l.23-.19c.25-.21.51-.43.78-.68l.13-.1a1.26 1.26 0 0 1 .75-.17zm8.16 1.93v.13a.82.82 0 0 0-.04-.13zm-7.24 0a.57.57 0 0 0 0 .06zm8.61-.11l-.13.07zM8.24 21.86a.75.75 0 0 0 .07.13zm-.13-1.25zm18.76 0zm-.14-7.23zm-18.54 0zM26.67 12l.07.13a.75.75 0 0 0-.07-.13zm-14-4.27l-.13.07zm1.25-.13a.82.82 0 0 0 0 .13zm7.22 0v.1a.57.57 0 0 0-.02-.07z"/><path class="cls-1" d="M17.5 21.75A4.75 4.75 0 1 1 22.25 17a4.76 4.76 0 0 1-4.75 4.75zm0-7.5A2.75 2.75 0 1 0 20.25 17a2.75 2.75 0 0 0-2.75-2.75z"/></svg>