<svg id="Layer_1" data-name="Layer 1" xmlns="http://www.w3.org/2000/svg" viewBox="0 0 29 25"><defs><style>.cls-1{fill:#fff}</style></defs><title>Artboard 1</title><path class="cls-1" d="M18.46 7.57v-.31a3.23 3.23 0 0 1 3-3.38 3.23 3.23 0 0 1 3 3.38 3.23 3.23 0 0 1-3 3.38 2.94 2.94 0 0 1-2.4-1.32 5.66 5.66 0 0 1 .09.94c0 .18 0 .36-.05.54a3.82 3.82 0 0 0 2.36.84 4.23 4.23 0 0 0 4-4.38 4.23 4.23 0 0 0-4-4.38 4.14 4.14 0 0 0-4 3.46 5.21 5.21 0 0 1 1 1.23zM9.5 9.32a2.94 2.94 0 0 1-2.4 1.32A3.23 3.23 0 0 1 4 7.26a3.23 3.23 0 0 1 3-3.38 3.23 3.23 0 0 1 3 3.38v.31a5.21 5.21 0 0 1 1-1.22 4.14 4.14 0 0 0-4-3.46 4.23 4.23 0 0 0-4 4.37 4.23 4.23 0 0 0 4 4.38 3.82 3.82 0 0 0 2.36-.84c0-.18-.05-.35-.05-.54a5.66 5.66 0 0 1 .19-.94zm11.98 2.57a17.94 17.94 0 0 0-2.62.15c-.06.17-.12.34-.19.51a4.75 4.75 0 0 1-.31.62 14.48 14.48 0 0 1 3.12-.27c3.37 0 6.1.49 6.1 3.81 0 2.06-.8 2.53-2.07 2.53-1.07 0-2.48-.34-4-.34h-.34c-.39-2.9-2.68-3.68-4.75-3.9a4.38 4.38 0 0 1-4.3 0c-2.1.21-4.51 1-4.88 3.93H7.1c-1.36 0-2.62.18-3.63.18C2 19.07 1 18.67 1 16.7c0-3.32 2.73-3.81 6.1-3.81a14.47 14.47 0 0 1 3.12.27 4.75 4.75 0 0 1-.31-.62c-.07-.16-.14-.33-.19-.51a17.94 17.94 0 0 0-2.62-.15c-2.3 0-7.1 0-7.1 4.81 0 3.37 2.61 3.37 3.46 3.37.51 0 1.05 0 1.63-.08s1.31-.1 2-.1h.1c.07 1.12.76 3.25 5.12 3.25a14.8 14.8 0 0 0 2-.13 14 14 0 0 0 1.89.13c4.26 0 4.95-2.13 5-3.25h.29a17.82 17.82 0 0 1 2.25.19 14.72 14.72 0 0 0 1.78.15c2.06 0 3.07-1.15 3.07-3.53-.02-4.8-4.81-4.8-7.11-4.8zm-5.31 10.25a12.59 12.59 0 0 1-1.89-.14 13.35 13.35 0 0 1-2 .15c-1.78 0-4.13-.39-4.13-2.45 0-3.32 2.69-3.81 6-3.81s6 .49 6 3.81c.04 2.05-2.25 2.44-3.98 2.44z"/><path class="cls-1" d="M18.3 10a4.54 4.54 0 0 0-.85-2.37 3.82 3.82 0 0 0-6.34 0 4.54 4.54 0 0 0-.84 2.37v.31a4.23 4.23 0 0 0 4 4.38 4.23 4.23 0 0 0 4-4.38c.06-.15.04-.25.03-.31zm-4 3.69a3.23 3.23 0 0 1-3-3.38 3.23 3.23 0 0 1 3-3.38 3.23 3.23 0 0 1 3 3.38 3.23 3.23 0 0 1-3.01 3.33z"/></svg>