<svg id="Layer_1" data-name="Layer 1" xmlns="http://www.w3.org/2000/svg" viewBox="0 0 87 87"><defs><style>.cls-1{fill:#fff}</style></defs><title>Artboard 1</title><path class="cls-1" d="M43.5 87A43.5 43.5 0 1 1 87 43.5 43.55 43.55 0 0 1 43.5 87zm0-85A41.5 41.5 0 1 0 85 43.5 41.55 41.55 0 0 0 43.5 2z"/><path class="cls-1" d="M72.47 41.44a3.91 3.91 0 0 0-4.85-1.65L57.3 27l-.67.54c-2-2.66-12 .34-19.87 4.93A50.22 50.22 0 0 0 26 40.73c-2 2.06-4.09 4.84-3.32 6.57l-.79.31 6.05 15.3a3.91 3.91 0 1 0 5.8 1.1 3.83 3.83 0 0 0-.82-1c.7-2.4 1.6-3.22 5.32-6.06 3.24-2.47 6.71-.46 10.27 2.28a3.74 3.74 0 0 0 .49 3.59c1.11 1.9 4.17 2.09 6.06 1a5.48 5.48 0 0 0 2.12-2.43 3.59 3.59 0 0 0 0-3.33 3.76 3.76 0 0 0-2.8-2.13c-.39-4.4-.1-8.89 3.74-10.53 4.13-1.76 4.88-2 7.15-1.36a3.91 3.91 0 1 0 7.23-2.58zm-34.71-7.27c8.63-5 16.05-6.26 17.23-5.51-.11 1.23-4.69 5.87-13.9 11.23s-15.51 7.06-16.63 6.54c-.06-1.43 4.68-7.24 13.3-12.26zm33.17 9.73a1.9 1.9 0 0 1-3.74-.57v-.76l-.73-.23c-3.46-1.15-4.46-.8-9.16 1.21-6 2.57-5.21 10.25-4.85 13.53l.13 1.16 1.13-.3c.25-.07.93-.25 1.72 1.11.48.82-.42 2.45-1.41 3s-2.85.55-3.33-.27c-.82-1.41-.37-1.84-.16-2l.83-.8-.9-.71c-3.17-2.52-8.46-6.7-13.46-2.9-4.07 3.11-5.29 4.16-6.22 7.82l-.19.75.68.37A1.87 1.87 0 0 1 32 65a1.91 1.91 0 0 1-.69 2.61 1.91 1.91 0 0 1-2.61-.69 1.91 1.91 0 0 1 .76-2.64l1-.44-6.1-15.42a4.6 4.6 0 0 0 .72.06A16.18 16.18 0 0 0 30 47.42a72.59 72.59 0 0 0 12.14-5.8 72.58 72.58 0 0 0 11-7.7c2-1.78 3.22-3.22 3.67-4.38L67.2 42.45l.93-.69a1.91 1.91 0 0 1 2.8 2.13z"/></svg>