<svg id="Layer_1" data-name="Layer 1" xmlns="http://www.w3.org/2000/svg" viewBox="0 0 87 87"><defs><style>.cls-1{fill:#fff}</style></defs><title>Artboard 1</title><path class="cls-1" d="M43.5 0a43.47 43.47 0 0 0-28.88 76A43.49 43.49 0 1 0 43.5 0zM17.74 76h51.52a41.37 41.37 0 0 1-51.52 0zm13.81-52.31a4 4 0 1 1 2.14-5.24 4 4 0 0 1-2.14 5.24zm.65 1.89l-.85 2.79-1-2.39a6 6 0 0 0 1.85-.4zm2.18-.3l1 3.1-1.71 5.52-1.11-2.65zm2.32 5.53l1 3.1-1.7 5.52-1.11-2.65zm.64 11.06L39 36.34l1.72 4.09zm11.77-2.78l.15-.42a2 2 0 0 1 1.1-1.19 2 2 0 1 1-.07 3.64l-.4-.19L32 48.47l-.15.42a2 2 0 1 1-1.9-2.65 2 2 0 0 1 .87.2l.4.19zm-8.8 8L48 65.39l1.84-.78-7.68-18.26 2.73-1.15L57.09 74h-8.73L37.55 48.29zM71.61 74H59.26L46.73 44.43l3.14-1.32a4 4 0 1 0-2.33-5.53l-5 2.08-7.12-17.1A6 6 0 1 0 28 25.65l7.19 17.1-4 1.69A4 4 0 1 0 33.52 50l2.18-.92L46.19 74h-30.8a41.5 41.5 0 1 1 56.21 0z"/></svg>