<svg id="Layer_1" data-name="Layer 1" xmlns="http://www.w3.org/2000/svg" viewBox="0 0 87 87"><defs><style>.cls-1{fill:#fff}</style></defs><title>Artboard 1</title><path class="cls-1" d="M43.5 87A43.5 43.5 0 1 1 87 43.5 43.55 43.55 0 0 1 43.5 87zm0-85A41.5 41.5 0 1 0 85 43.5 41.55 41.55 0 0 0 43.5 2z"/><path class="cls-1" d="M27 82.39l-5-1.67v-54.2h5zm-3-3.11l1 .33V28.52h-1zM24.5 25a3.55 3.55 0 0 1-3.5-3.59c0-1.61 2-4.84 2.66-5.79l.84-1.27.84 1.27C26 16.57 28 19.8 28 21.41A3.55 3.55 0 0 1 24.5 25zm0-6.93a11.2 11.2 0 0 0-1.5 3.34 1.5 1.5 0 1 0 3 0 11.2 11.2 0 0 0-1.5-3.34zm17.55 41.11a34.37 34.37 0 0 1-13.82-3.28l.89-1.79c.11.06 11.36 5.57 20.15 1.65 6.56-2.93 13.88-3 17.94-2.69L54.65 41.73l13.6-15.27c-3.42-.51-11.36-1.22-18.16 1.82-9.59 4.28-21.25.2-21.74 0l.65-1.85c.11 0 11.41 4 20.26 0 9.53-4.26 20.66-1.75 21.13-1.64l1.64.38-14.56 16.41L73.4 55.95l-3.4-.57c-.11 0-11-1.79-19.93 2.2a19.63 19.63 0 0 1-8.02 1.6z"/></svg>