<svg id="Layer_1" data-name="Layer 1" xmlns="http://www.w3.org/2000/svg" viewBox="0 0 29 25"><defs><style>.cls-1{fill:#2d2d2d}</style></defs><title>Artboard 1</title><path class="cls-1" d="M18.24 12.76l5-3.87.22-.17L26.06.4 17.71 3 7 16.82l.62.62L9 18.86l.63.63.7-.54 3.86-3 .81-.65 2.46-1.92.79-.62zm-1-.48l-.39.31-2.65 2.07-.41.32-.41.32-3.67 2.85-1.42-1.41 2.63-3.36.31-.39.31-.39 2.65-3.4.32-.41.32-.41 3.52-4.51 6.22-2-2 6.22-5 3.87zm-7.28-.92L5.79 8.1 3.82 1.89l6.21 1.97 2.89 3.7.63-.81-2.73-3.5-.19-.25-.29-.09L4.12.93 2.28.35l.59 1.84L4.84 8.4l.09.3.24.19 4.17 3.25.62-.78zm8.91 2.2l-.79.62 2 2.56-1.41 1.41-2.84-2.21-.82.63 3.04 2.37.7.54.62-.62 1.42-1.42.62-.62-.54-.7-2-2.56zm4.26 4.37l1.41-1.41-.71-.71-1.41 1.41-2.82 2.83-1.41 1.41.71.71 1.41-1.41L24.55 25l2.83-2.83zm-.71.71L26 22.17l-1.41 1.41L21 20.05zM5.95 17.22l-1.41-1.41-.71.71 1.41 1.41L1 22.17 3.83 25l4.24-4.24 1.41 1.41.71-.71-1.41-1.41zm-3.54 4.95l3.54-3.54 1.41 1.41-3.53 3.55z"/></svg>